Coordinates
version=1
nRows=5
nColumns=26
inDegrees=yes

Units are S.I. units (second, meters, Newtons, ...)
Angles are in degrees.

endheader
time	pelvis_tilt	pelvis_list	pelvis_rotation	pelvis_tx	pelvis_ty	pelvis_tz	hip_flexion_r	hip_adduction_r	hip_rotation_r	knee_angle_r	knee_angle_r_beta	ankle_angle_r	subtalar_angle_r	mtp_angle_r	hip_flexion_l	hip_adduction_l	hip_rotation_l	knee_angle_l	knee_angle_l_beta	ankle_angle_l	subtalar_angle_l	mtp_angle_l	lumbar_extension	lumbar_bending	lumbar_rotation
      0.27500000000000002000	      5.31251165360274590000	     -0.70766441730732099000	     -2.54681618292527200000	      0.35970303002941467000	      1.02457998013977060000	      0.16352773620936040000	     10.06227878036370900000	     -3.28743939143214050000	     -1.16071246404467550000	     59.46069480700173000000	     59.46069480700173000000	      3.11940461788301080000	      0.00000000000000000000	      0.00000000000000000000	      2.68682131827414850000	      0.60071893729396408000	     -7.95921664608455700000	     13.38770053206738800000	     13.38770053206738800000	      4.99110805486502330000	      0.00000000000000000000	      0.00000000000000000000	    -18.45778295785051200000	     -0.83929058328119044000	      4.78376161663331080000
      0.28333333333333333000	      5.30057971466813260000	     -0.78000286656812745000	     -2.32338923775072990000	      0.36836195638029062000	      1.02539201248267680000	      0.16311084484576679000	     10.80424858417796200000	     -3.06897612919124360000	     -1.15137893636422840000	     58.47118651052321100000	     58.47118651052321100000	      3.71030384318414260000	      0.00000000000000000000	      0.00000000000000000000	      1.95756746772963660000	      0.61547888318475241000	     -7.83264561349980240000	     13.02030420677823000000	     13.02030420677823000000	      5.34424263485316860000	      0.00000000000000000000	      0.00000000000000000000	    -18.39882020430377100000	     -0.70699322919850272000	      4.66266809082392260000
      0.29166666666666669000	      5.69557850157567100000	     -1.15264502091661080000	     -1.93342489426339600000	      0.37685879706844799000	      1.02689744282166400000	      0.16219113315361147000	     10.89069460659016600000	     -2.55239050812529240000	     -1.34314998298269010000	     57.08656905152340500000	     57.08656905152340500000	      4.31381237710308520000	      0.00000000000000000000	      0.00000000000000000000	      0.57063260482156697000	      0.35655095847069768000	     -7.35647948131292310000	     12.14224803655383900000	     12.14224803655383900000	      5.30318257009962310000	      0.00000000000000000000	      0.00000000000000000000	    -18.89286536634126200000	     -0.15520895604677323000	      4.42805497394508850000
      0.29999999999999999000	      5.60508671477600730000	     -1.09203817384216270000	     -1.83411153468711840000	      0.38510297665253079000	      1.02733866568011710000	      0.16185657974268525000	     11.76060928380120200000	     -2.45506486353666190000	     -1.18928714976292540000	     55.95806463803115300000	     55.95806463803115300000	      4.74533913585521110000	      0.00000000000000000000	      0.00000000000000000000	     -0.02369895593450732300	      0.48191368122980865000	     -7.32202649593072860000	     11.87059490190154100000	     11.87059490190154100000	      5.65935475957756130000	      0.00000000000000000000	      0.00000000000000000000	    -18.79374381438199400000	     -0.20867783305679860000	      4.35416106107887390000
      0.30833333333333335000	      5.80372363583653690000	     -1.45157232058511120000	     -1.39507834418719230000	      0.39373868301808546000	      1.02847472947027560000	      0.16139601030370782000	     11.85218392638881500000	     -1.82390794833215430000	     -1.21004674537259940000	     54.15495892565898100000	     54.15495892565898100000	      5.39980235942498070000	      0.00000000000000000000	      0.00000000000000000000	     -1.12071973280513190000	      0.14379311199181402000	     -6.82903020016846260000	     11.15226995979803200000	     11.15226995979803200000	      5.66941073049131640000	      0.00000000000000000000	      0.00000000000000000000	    -19.02543412239676000000	      0.27731593742519545000	      4.16023212837691410000
